HIERARCHY
ROOT hip
{
  OFFSET 0 90.174 2.4664
  CHANNELS 6 Xposition Yposition Zposition Zrotation Xrotation Yrotation
  JOINT abdomen
  {
    OFFSET 0 -1.186 -1.5018
    CHANNELS 6 Xposition Yposition Zposition Zrotation Xrotation Yrotation
    JOINT abdomen2
    {
      OFFSET 0 9.964 0.2134
      CHANNELS 6 Xposition Yposition Zposition Zrotation Xrotation Yrotation
      JOINT chest
      {
        OFFSET 0 13.134 -3.2573
        CHANNELS 6 Xposition Yposition Zposition Zrotation Xrotation Yrotation
        JOINT neck
        {
          OFFSET 0 20.686 -1.6905
          CHANNELS 6 Xposition Yposition Zposition Zrotation Xrotation Yrotation
          JOINT head
          {
            OFFSET 0 7.238 -0.1237
            CHANNELS 6 Xposition Yposition Zposition Zrotation Xrotation Yrotation
            End Site
            {
              OFFSET 0 0 0
            }
          }
        }
        JOINT lCollar
        {
          OFFSET 1.7069 20.075 5.0056
          CHANNELS 6 Xposition Yposition Zposition Zrotation Xrotation Yrotation
          JOINT lShldr
          {
            OFFSET 13.6458 -0.047 -4.849
            CHANNELS 6 Xposition Yposition Zposition Zrotation Xrotation Yrotation
            JOINT lForeArm
            {
              OFFSET 28.3255 -0.9759 2.2888
              CHANNELS 6 Xposition Yposition Zposition Zrotation Xrotation Yrotation
              JOINT lHand
              {
                OFFSET 22.1583 -0.53 10.8316
                CHANNELS 6 Xposition Yposition Zposition Zrotation Xrotation Yrotation
                JOINT lThumb1
                {
                  OFFSET 0.786 0.112 2.5817
                  CHANNELS 6 Xposition Yposition Zposition Zrotation Xrotation Yrotation
                  JOINT lThumb2
                  {
                    OFFSET 0.3601 -0.878 4.2331
                    CHANNELS 6 Xposition Yposition Zposition Zrotation Xrotation Yrotation
                    JOINT lThumb2_End
                    {
                      OFFSET 1.8127 -1.216 2.2227
                      CHANNELS 6 Xposition Yposition Zposition Zrotation Xrotation Yrotation
                      End Site
                      {
                        OFFSET 0.0181 -0.0122 0.0222
                      }
                    }
                  }
                }
                JOINT lCarpal1
                {
                  OFFSET 0.9571 1.114 1.7695
                  CHANNELS 6 Xposition Yposition Zposition Zrotation Xrotation Yrotation
                  JOINT lIndex1
                  {
                    OFFSET 4.1246 0.487 4.1451
                    CHANNELS 6 Xposition Yposition Zposition Zrotation Xrotation Yrotation
                    JOINT lIndex2
                    {
                      OFFSET 3.4052 -1.454 2.7682
                      CHANNELS 6 Xposition Yposition Zposition Zrotation Xrotation Yrotation
                      JOINT lIndex2_End
                      {
                        OFFSET 1.4531 -1.795 1.2713
                        CHANNELS 6 Xposition Yposition Zposition Zrotation Xrotation Yrotation
                        End Site
                        {
                          OFFSET 0.0145 -0.0179 0.0127
                        }
                      }
                    }
                  }
                  JOINT lMid1
                  {
                    OFFSET 5.6954 0.21 2.1184
                    CHANNELS 6 Xposition Yposition Zposition Zrotation Xrotation Yrotation
                    JOINT lMid2
                    {
                      OFFSET 3.9766 -1.54 2.3863
                      CHANNELS 6 Xposition Yposition Zposition Zrotation Xrotation Yrotation
                      JOINT lMid2_End
                      {
                        OFFSET 1.4042 -1.926 1.125
                        CHANNELS 6 Xposition Yposition Zposition Zrotation Xrotation Yrotation
                        End Site
                        {
                          OFFSET 0.014 -0.0193 0.0113
                        }
                      }
                    }
                  }
                }
                JOINT lCarpal2
                {
                  OFFSET 2.0956 0.66 -0.3894
                  CHANNELS 6 Xposition Yposition Zposition Zrotation Xrotation Yrotation
                  JOINT lRing1
                  {
                    OFFSET 5.0395 -0.09 2.4971
                    CHANNELS 6 Xposition Yposition Zposition Zrotation Xrotation Yrotation
                    JOINT lRing2
                    {
                      OFFSET 3.7921 -1.552 1.4806
                      CHANNELS 6 Xposition Yposition Zposition Zrotation Xrotation Yrotation
                      JOINT lRing2_End
                      {
                        OFFSET 1.4655 -1.808 0.9609
                        CHANNELS 6 Xposition Yposition Zposition Zrotation Xrotation Yrotation
                        End Site
                        {
                          OFFSET 0.0147 -0.0181 0.0096
                        }
                      }
                    }
                  }
                  JOINT lPinky1
                  {
                    OFFSET 4.9141 -1.269 0.3591
                    CHANNELS 6 Xposition Yposition Zposition Zrotation Xrotation Yrotation
                    JOINT lPinky2
                    {
                      OFFSET 3.1477 -1.685 0.8462
                      CHANNELS 6 Xposition Yposition Zposition Zrotation Xrotation Yrotation
                      JOINT lPinky2_End
                      {
                        OFFSET 0.8055 -1.585 0.7955
                        CHANNELS 6 Xposition Yposition Zposition Zrotation Xrotation Yrotation
                        End Site
                        {
                          OFFSET 0.0081 -0.0158 0.008
                        }
                      }
                    }
                  }
                }
              }
            }
          }
        }
        JOINT rCollar
        {
          OFFSET -1.7069 20.075 5.0056
          CHANNELS 6 Xposition Yposition Zposition Zrotation Xrotation Yrotation
          JOINT rShldr
          {
            OFFSET -13.6458 -0.047 -4.849
            CHANNELS 6 Xposition Yposition Zposition Zrotation Xrotation Yrotation
            JOINT rForeArm
            {
              OFFSET -28.3255 -0.9759 2.2888
              CHANNELS 6 Xposition Yposition Zposition Zrotation Xrotation Yrotation
              JOINT rHand
              {
                OFFSET -22.1583 -0.53 10.8316
                CHANNELS 6 Xposition Yposition Zposition Zrotation Xrotation Yrotation
                JOINT rThumb1
                {
                  OFFSET -0.786 0.112 2.5817
                  CHANNELS 6 Xposition Yposition Zposition Zrotation Xrotation Yrotation
                  JOINT rThumb2
                  {
                    OFFSET -0.3601 -0.878 4.2331
                    CHANNELS 6 Xposition Yposition Zposition Zrotation Xrotation Yrotation
                    JOINT rThumb2_End
                    {
                      OFFSET -1.8127 -1.216 2.2227
                      CHANNELS 6 Xposition Yposition Zposition Zrotation Xrotation Yrotation
                      End Site
                      {
                        OFFSET -0.0181 -0.0122 0.0222
                      }
                    }
                  }
                }
                JOINT rCarpal1
                {
                  OFFSET -0.9571 1.114 1.7695
                  CHANNELS 6 Xposition Yposition Zposition Zrotation Xrotation Yrotation
                  JOINT rIndex1
                  {
                    OFFSET -4.1246 0.487 4.1451
                    CHANNELS 6 Xposition Yposition Zposition Zrotation Xrotation Yrotation
                    JOINT rIndex2
                    {
                      OFFSET -3.4052 -1.454 2.7682
                      CHANNELS 6 Xposition Yposition Zposition Zrotation Xrotation Yrotation
                      JOINT rIndex2_End
                      {
                        OFFSET -1.4531 -1.795 1.2713
                        CHANNELS 6 Xposition Yposition Zposition Zrotation Xrotation Yrotation
                        End Site
                        {
                          OFFSET -0.0145 -0.018 0.0127
                        }
                      }
                    }
                  }
                  JOINT rMid1
                  {
                    OFFSET -5.6954 0.21 2.1184
                    CHANNELS 6 Xposition Yposition Zposition Zrotation Xrotation Yrotation
                    JOINT rMid2
                    {
                      OFFSET -3.9766 -1.54 2.3863
                      CHANNELS 6 Xposition Yposition Zposition Zrotation Xrotation Yrotation
                      JOINT rMid2_End
                      {
                        OFFSET -1.4042 -1.926 1.125
                        CHANNELS 6 Xposition Yposition Zposition Zrotation Xrotation Yrotation
                        End Site
                        {
                          OFFSET -0.014 -0.0193 0.0113
                        }
                      }
                    }
                  }
                }
                JOINT rCarpal2
                {
                  OFFSET -2.0956 0.66 -0.3894
                  CHANNELS 6 Xposition Yposition Zposition Zrotation Xrotation Yrotation
                  JOINT rRing1
                  {
                    OFFSET -5.0395 -0.09 2.4971
                    CHANNELS 6 Xposition Yposition Zposition Zrotation Xrotation Yrotation
                    JOINT rRing2
                    {
                      OFFSET -3.7921 -1.552 1.4806
                      CHANNELS 6 Xposition Yposition Zposition Zrotation Xrotation Yrotation
                      JOINT rRing2_End
                      {
                        OFFSET -1.4655 -1.808 0.9609
                        CHANNELS 6 Xposition Yposition Zposition Zrotation Xrotation Yrotation
                        End Site
                        {
                          OFFSET -0.0147 -0.0181 0.0096
                        }
                      }
                    }
                  }
                  JOINT rPinky1
                  {
                    OFFSET -4.9141 -1.269 0.3592
                    CHANNELS 6 Xposition Yposition Zposition Zrotation Xrotation Yrotation
                    JOINT rPinky2
                    {
                      OFFSET -3.1477 -1.685 0.8462
                      CHANNELS 6 Xposition Yposition Zposition Zrotation Xrotation Yrotation
                      JOINT rPinky2_End
                      {
                        OFFSET -0.8055 -1.585 0.7955
                        CHANNELS 6 Xposition Yposition Zposition Zrotation Xrotation Yrotation
                        End Site
                        {
                          OFFSET -0.0081 -0.0158 0.008
                        }
                      }
                    }
                  }
                }
              }
            }
          }
        }
      }
    }
  }
  JOINT lThigh
  {
    OFFSET 8.367 -8.2066 0.5982
    CHANNELS 6 Xposition Yposition Zposition Zrotation Xrotation Yrotation
    JOINT lShin
    {
      OFFSET 2.1923 -43.463 -0.4932
      CHANNELS 6 Xposition Yposition Zposition Zrotation Xrotation Yrotation
      JOINT lFoot
      {
        OFFSET 0.7333 -45.8593 -2.6451
        CHANNELS 6 Xposition Yposition Zposition Zrotation Xrotation Yrotation
        End Site
        {
          OFFSET 2.6618 -4.2699 12.3931
        }
      }
    }
  }
  JOINT rThigh
  {
    OFFSET -8.367 -8.2066 0.5982
    CHANNELS 6 Xposition Yposition Zposition Zrotation Xrotation Yrotation
    JOINT rShin
    {
      OFFSET -2.1923 -43.463 -0.4931
      CHANNELS 6 Xposition Yposition Zposition Zrotation Xrotation Yrotation
      JOINT rFoot
      {
        OFFSET -0.7333 -45.8593 -2.6451
        CHANNELS 6 Xposition Yposition Zposition Zrotation Xrotation Yrotation
        End Site
        {
          OFFSET -2.6618 -4.2699 12.3931
        }
      }
    }
  }
}
MOTION
Frames:	4
Frame Time:	0.0333333
8.42292 20.1902 -50.9869 0 0 -0 0 -1.186 -1.5018 0.232388 1.09912 -0.102027 -1.77636e-015 9.964 0.2134 0.466862 2.19782 -0.208571 0 13.134 -3.2573 0.466862 2.19781 -0.208571 0 20.686 -1.6905 15.8163 -4.58558 13.3947 -7.10543e-015 7.238 -0.1237 0.0283562 9.28759 4.63956 1.7069 20.075 5.0056 -21.2411 -9.4184 -10.17 13.6458 -0.047 -4.849 -34.1024 2.7651 -43.8808 28.3255 -0.9759 2.2888 -17.296 11.2159 -24.8008 22.1583 -0.53 10.8316 -0.972073 43.5591 -20.2408 0.786 0.112 2.5817 -7.31322e-007 3.96962e-007 1.83564e-007 0.3601 -0.878 4.2331 7.28387e-007 -5.81399e-007 -3.29242e-006 1.8127 -1.216 2.2227 -3.65661e-007 1.98481e-007 9.17821e-008 0.9571 1.114 1.7695 3.18055e-015 1.59028e-015 -0 4.1246 0.487 4.1451 -7.31322e-007 3.96962e-007 1.83564e-007 3.4052 -1.454 2.7682 7.28387e-007 -5.81399e-007 -3.29242e-006 1.4531 -1.795 1.2713 -3.65661e-007 1.98481e-007 9.17821e-008 5.6954 0.21 2.1184 -7.31322e-007 3.96962e-007 1.83564e-007 3.9766 -1.54 2.3863 7.28387e-007 -5.81399e-007 -3.29242e-006 1.4042 -1.926 1.125 -3.65661e-007 1.98481e-007 9.17821e-008 2.0956 0.66 -0.3894 3.18055e-015 1.59028e-015 -0 5.0395 -0.09 2.4971 -7.31322e-007 3.96962e-007 1.83564e-007 3.7921 -1.552 1.4806 7.28387e-007 -5.81399e-007 -3.29242e-006 1.4655 -1.808 0.9609 -3.65661e-007 1.98481e-007 9.17821e-008 4.9141 -1.269 0.3591 -7.31322e-007 3.96962e-007 1.83564e-007 3.1477 -1.685 0.8462 7.28387e-007 -5.81399e-007 -3.29242e-006 0.8055 -1.585 0.7955 -3.65661e-007 1.98481e-007 9.17821e-008 -1.7069 20.075 5.0056 19.2437 -10.2377 -3.37204 -13.6458 -0.047 -4.849 38.1236 8.3276 48.6068 -28.3255 -0.9759 2.2888 22.3202 15.4974 19.0123 -22.1583 -0.53 10.8316 47.6511 -52.1888 8.22606 -0.786 0.112 2.5817 -7.30352e-007 -1.22566e-006 3.08124e-006 -0.3601 -0.878 4.2331 7.30352e-007 1.22566e-006 -3.08124e-006 -1.8127 -1.216 2.2227 -7.30352e-007 -1.22566e-006 3.08124e-006 -0.9571 1.114 1.7695 4.77083e-015 3.18055e-015 6.36111e-015 -4.1246 0.487 4.1451 -7.30352e-007 -1.22566e-006 3.08124e-006 -3.4052 -1.454 2.7682 7.30352e-007 1.22566e-006 -3.08124e-006 -1.4531 -1.795 1.2713 -7.30352e-007 -1.22566e-006 3.08124e-006 -5.6954 0.21 2.1184 -7.30352e-007 -1.22566e-006 3.08124e-006 -3.9766 -1.54 2.3863 7.30352e-007 1.22566e-006 -3.08124e-006 -1.4042 -1.926 1.125 -7.30352e-007 -1.22566e-006 3.08124e-006 -2.0956 0.66 -0.3894 4.77083e-015 3.18055e-015 6.36111e-015 -5.0395 -0.09 2.4971 -7.30352e-007 -1.22566e-006 3.08124e-006 -3.7921 -1.552 1.4806 7.30352e-007 1.22566e-006 -3.08124e-006 -1.4655 -1.808 0.9609 -7.30352e-007 -1.22566e-006 3.08124e-006 -4.9141 -1.269 0.3592 -7.30352e-007 -1.22566e-006 3.08124e-006 -3.1477 -1.685 0.8462 7.30352e-007 1.22566e-006 -3.08124e-006 -0.8055 -1.585 0.7955 -7.30352e-007 -1.22566e-006 3.08124e-006 8.367 -8.2066 0.5982 8.18537 -75.4737 29.1823 2.1923 -43.463 -0.4932 172.335 26.6106 -161.785 0.7333 -45.8593 -2.6451 -2.18249 74.2418 17.6763 -8.367 -8.2066 0.5982 -7.99407 -75.4156 -28.9624 -2.1923 -43.463 -0.4931 -172.28 26.6824 161.771 -0.7333 -45.8593 -2.6451 2.94035 74.8121 -18.3588 
8.42292 20.1902 -50.9869 0 0 -0 0 -1.186 -1.5018 0.231893 1.04531 -0.101204 1.77636e-015 9.964 0.2134 0.465749 2.09021 -0.206691 1.77636e-015 13.134 -3.2573 0.465749 2.0902 -0.206691 -1.77636e-015 20.686 -1.6905 15.6383 -4.5556 13.2422 0 7.238 -0.1237 0.0320468 9.18611 4.58832 1.7069 20.075 5.0056 -21.1733 -9.005 -9.8896 13.6458 -0.047 -4.849 -34.2113 2.90686 -44.0119 28.3255 -0.9759 2.2888 -17.4126 11.3272 -25.0297 22.1583 -0.53 10.8316 -0.416422 43.3598 -19.7456 0.786 0.112 2.5817 -1.11672e-006 5.99631e-007 -2.51407e-008 0.3601 -0.878 4.2331 -1.0943e-006 6.01131e-007 2.74366e-007 1.8127 -1.216 2.2227 -1.80352e-006 8.08735e-007 -2.34425e-006 0.9571 1.114 1.7695 1.76556e-031 -1.59028e-015 6.36111e-015 4.1246 0.487 4.1451 -1.11672e-006 5.99631e-007 -2.51407e-008 3.4052 -1.454 2.7682 -1.0943e-006 6.01131e-007 2.74366e-007 1.4531 -1.795 1.2713 -1.80352e-006 8.08735e-007 -2.34425e-006 5.6954 0.21 2.1184 -1.11672e-006 5.99631e-007 -2.51407e-008 3.9766 -1.54 2.3863 -1.0943e-006 6.01131e-007 2.74366e-007 1.4042 -1.926 1.125 -1.80352e-006 8.08735e-007 -2.34425e-006 2.0956 0.66 -0.3894 1.76556e-031 -1.59028e-015 6.36111e-015 5.0395 -0.09 2.4971 -1.11672e-006 5.99631e-007 -2.51407e-008 3.7921 -1.552 1.4806 -1.0943e-006 6.01131e-007 2.74366e-007 1.4655 -1.808 0.9609 -1.80352e-006 8.08735e-007 -2.34425e-006 4.9141 -1.269 0.3591 -1.11672e-006 5.99631e-007 -2.51407e-008 3.1477 -1.685 0.8462 -1.0943e-006 6.01131e-007 2.74366e-007 0.8055 -1.585 0.7955 -1.80352e-006 8.08735e-007 -2.34425e-006 -1.7069 20.075 5.0056 19.5124 -9.792 -3.05391 -13.6458 -0.047 -4.849 38.0471 8.23444 48.4689 -28.3255 -0.9759 2.2888 22.2545 15.4525 18.9148 -22.1583 -0.53 10.8316 47.2227 -52.253 8.38635 -0.786 0.112 2.5817 7.30995e-007 1.22607e-006 -3.07971e-006 -0.3601 -0.878 4.2331 7.30995e-007 1.22607e-006 -3.07971e-006 -1.8127 -1.216 2.2227 7.30995e-007 1.22607e-006 -3.07971e-006 -0.9571 1.114 1.7695 -7.95139e-016 -3.18055e-015 3.18055e-015 -4.1246 0.487 4.1451 7.30995e-007 1.22607e-006 -3.07971e-006 -3.4052 -1.454 2.7682 7.30995e-007 1.22607e-006 -3.07971e-006 -1.4531 -1.795 1.2713 7.30995e-007 1.22607e-006 -3.07971e-006 -5.6954 0.21 2.1184 7.30995e-007 1.22607e-006 -3.07971e-006 -3.9766 -1.54 2.3863 7.30995e-007 1.22607e-006 -3.07971e-006 -1.4042 -1.926 1.125 7.30995e-007 1.22607e-006 -3.07971e-006 -2.0956 0.66 -0.3894 -7.95139e-016 -3.18055e-015 3.18055e-015 -5.0395 -0.09 2.4971 7.30995e-007 1.22607e-006 -3.07971e-006 -3.7921 -1.552 1.4806 7.30995e-007 1.22607e-006 -3.07971e-006 -1.4655 -1.808 0.9609 7.30995e-007 1.22607e-006 -3.07971e-006 -4.9141 -1.269 0.3592 7.30995e-007 1.22607e-006 -3.07971e-006 -3.1477 -1.685 0.8462 7.30995e-007 1.22607e-006 -3.07971e-006 -0.8055 -1.585 0.7955 7.30995e-007 1.22607e-006 -3.07971e-006 8.367 -8.2066 0.5982 8.18537 -75.4737 29.1823 2.1923 -43.463 -0.4932 172.335 26.6106 -161.785 0.7333 -45.8593 -2.6451 -2.18249 74.2418 17.6763 -8.367 -8.2066 0.5982 -7.99407 -75.4156 -28.9624 -2.1923 -43.463 -0.4931 -172.28 26.6824 161.771 -0.7333 -45.8593 -2.6451 2.94035 74.8121 -18.3588 
8.42292 20.1902 -50.9869 0 0 -0 0 -1.186 -1.5018 0.231494 1.0022 -0.10054 0 9.964 0.2134 0.464854 2.00399 -0.205177 1.77636e-015 13.134 -3.2573 0.464854 2.00399 -0.205177 -1.77636e-015 20.686 -1.6905 15.4611 -4.52513 13.0898 -7.10543e-015 7.238 -0.1237 0.0356337 9.0846 4.5371 1.7069 20.075 5.0056 -21.1204 -8.67398 -9.66575 13.6458 -0.047 -4.849 -34.2983 3.02057 -44.1166 28.3255 -0.9759 2.2888 -17.5057 11.4168 -25.2127 22.1583 -0.53 10.8316 0.0296507 43.2033 -19.3484 0.786 0.112 2.5817 -3.64038e-007 2.01895e-007 9.11947e-008 0.3601 -0.878 4.2331 -4.01907e-008 3.92481e-009 -3.27289e-007 1.8127 -1.216 2.2227 7.28075e-007 -4.0379e-007 -1.82389e-007 0.9571 1.114 1.7695 -3.18055e-015 0 -0 4.1246 0.487 4.1451 -3.64038e-007 2.01895e-007 9.11947e-008 3.4052 -1.454 2.7682 -4.01907e-008 3.92481e-009 -3.27289e-007 1.4531 -1.795 1.2713 7.28075e-007 -4.0379e-007 -1.82389e-007 5.6954 0.21 2.1184 -3.64038e-007 2.01895e-007 9.11947e-008 3.9766 -1.54 2.3863 -4.01907e-008 3.92481e-009 -3.27289e-007 1.4042 -1.926 1.125 7.28075e-007 -4.0379e-007 -1.82389e-007 2.0956 0.66 -0.3894 -3.18055e-015 0 -0 5.0395 -0.09 2.4971 -3.64038e-007 2.01895e-007 9.11947e-008 3.7921 -1.552 1.4806 -4.01907e-008 3.92481e-009 -3.27289e-007 1.4655 -1.808 0.9609 7.28075e-007 -4.0379e-007 -1.82389e-007 4.9141 -1.269 0.3591 -3.64038e-007 2.01895e-007 9.11947e-008 3.1477 -1.685 0.8462 -4.01907e-008 3.92481e-009 -3.27289e-007 0.8055 -1.585 0.7955 7.28075e-007 -4.0379e-007 -1.82389e-007 -1.7069 20.075 5.0056 19.7256 -9.43409 -2.80124 -13.6458 -0.047 -4.849 37.9858 8.16012 48.3584 -28.3255 -0.9759 2.2888 22.202 15.4167 18.8367 -22.1583 -0.53 10.8316 46.8797 -52.3048 8.51441 -0.786 0.112 2.5817 3.25268e-006 -1.30906e-006 -1.42094e-006 -0.3601 -0.878 4.2331 3.80996e-006 8.4339e-007 -2.34694e-006 -1.8127 -1.216 2.2227 3.65756e-007 6.13221e-007 -1.53923e-006 -0.9571 1.114 1.7695 1.59028e-015 0 -0 -4.1246 0.487 4.1451 3.25268e-006 -1.30906e-006 -1.42094e-006 -3.4052 -1.454 2.7682 3.80996e-006 8.4339e-007 -2.34694e-006 -1.4531 -1.795 1.2713 3.65756e-007 6.13221e-007 -1.53923e-006 -5.6954 0.21 2.1184 3.25268e-006 -1.30906e-006 -1.42094e-006 -3.9766 -1.54 2.3863 3.80996e-006 8.4339e-007 -2.34694e-006 -1.4042 -1.926 1.125 3.65756e-007 6.13221e-007 -1.53923e-006 -2.0956 0.66 -0.3894 1.59028e-015 0 -0 -5.0395 -0.09 2.4971 3.25268e-006 -1.30906e-006 -1.42094e-006 -3.7921 -1.552 1.4806 3.80996e-006 8.4339e-007 -2.34694e-006 -1.4655 -1.808 0.9609 3.65756e-007 6.13221e-007 -1.53923e-006 -4.9141 -1.269 0.3592 3.25268e-006 -1.30906e-006 -1.42094e-006 -3.1477 -1.685 0.8462 3.80996e-006 8.4339e-007 -2.34694e-006 -0.8055 -1.585 0.7955 3.65756e-007 6.13221e-007 -1.53923e-006 8.367 -8.2066 0.5982 8.18537 -75.4737 29.1823 2.1923 -43.463 -0.4932 172.335 26.6106 -161.785 0.7333 -45.8593 -2.6451 -2.18249 74.2418 17.6763 -8.367 -8.2066 0.5982 -7.99407 -75.4156 -28.9624 -2.1923 -43.463 -0.4931 -172.28 26.6824 161.771 -0.7333 -45.8593 -2.6451 2.94035 74.8121 -18.3588 
8.42292 20.1902 -50.9869 0 0 -0 0 -1.186 -1.5018 0.231097 0.959047 -0.0998732 0 9.964 0.2134 0.463964 1.91768 -0.203658 0 13.134 -3.2573 0.463964 1.91768 -0.203658 -1.77636e-015 20.686 -1.6905 15.2835 -4.49418 12.9374 0 7.238 -0.1237 0.0391364 8.98309 4.4859 1.7069 20.075 5.0056 -21.0688 -8.34268 -9.44236 13.6458 -0.047 -4.849 -34.3851 3.13445 -44.2211 28.3255 -0.9759 2.2888 -17.5985 11.5066 -25.3957 22.1583 -0.53 10.8316 0.476577 43.0489 -18.95 0.786 0.112 2.5817 3.63301e-007 -2.03413e-007 -9.09366e-008 0.3601 -0.878 4.2331 -7.26601e-007 4.06827e-007 1.81873e-007 1.8127 -1.216 2.2227 -3.63301e-007 2.03413e-007 9.09366e-008 0.9571 1.114 1.7695 -0 0 3.18055e-015 4.1246 0.487 4.1451 3.63301e-007 -2.03413e-007 -9.09366e-008 3.4052 -1.454 2.7682 -7.26601e-007 4.06827e-007 1.81873e-007 1.4531 -1.795 1.2713 -3.63301e-007 2.03413e-007 9.09366e-008 5.6954 0.21 2.1184 3.63301e-007 -2.03413e-007 -9.09366e-008 3.9766 -1.54 2.3863 -7.26601e-007 4.06827e-007 1.81873e-007 1.4042 -1.926 1.125 -3.63301e-007 2.03413e-007 9.09366e-008 2.0956 0.66 -0.3894 -0 0 3.18055e-015 5.0395 -0.09 2.4971 3.63301e-007 -2.03413e-007 -9.09366e-008 3.7921 -1.552 1.4806 -7.26601e-007 4.06827e-007 1.81873e-007 1.4655 -1.808 0.9609 -3.63301e-007 2.03413e-007 9.09366e-008 4.9141 -1.269 0.3591 3.63301e-007 -2.03413e-007 -9.09366e-008 3.1477 -1.685 0.8462 -7.26601e-007 4.06827e-007 1.81873e-007 0.8055 -1.585 0.7955 -3.63301e-007 2.03413e-007 9.09366e-008 -1.7069 20.075 5.0056 19.9371 -9.07514 -2.55008 -13.6458 -0.047 -4.849 37.9243 8.08593 48.2479 -28.3255 -0.9759 2.2888 22.1494 15.3809 18.7587 -22.1583 -0.53 10.8316 46.5363 -52.3572 8.64215 -0.786 0.112 2.5817 -8.74653e-015 -6.36111e-015 -0 -0.3601 -0.878 4.2331 -7.15625e-015 -9.54166e-015 -0 -1.8127 -1.216 2.2227 1.59028e-015 -9.54166e-015 3.18055e-015 -0.9571 1.114 1.7695 -8.74653e-015 0 -0 -4.1246 0.487 4.1451 3.53113e-031 -6.36111e-015 3.18055e-015 -3.4052 -1.454 2.7682 -7.95139e-016 -6.36111e-015 -3.18055e-015 -1.4531 -1.795 1.2713 1.59028e-015 -6.36111e-015 -3.18055e-015 -5.6954 0.21 2.1184 3.53113e-031 -6.36111e-015 3.18055e-015 -3.9766 -1.54 2.3863 -7.95139e-016 -6.36111e-015 -3.18055e-015 -1.4042 -1.926 1.125 1.59028e-015 -6.36111e-015 -3.18055e-015 -2.0956 0.66 -0.3894 -8.74653e-015 0 -0 -5.0395 -0.09 2.4971 3.53113e-031 -6.36111e-015 3.18055e-015 -3.7921 -1.552 1.4806 -7.95139e-016 -6.36111e-015 -3.18055e-015 -1.4655 -1.808 0.9609 1.59028e-015 -6.36111e-015 -3.18055e-015 -4.9141 -1.269 0.3592 3.53113e-031 -6.36111e-015 3.18055e-015 -3.1477 -1.685 0.8462 -7.95139e-016 -6.36111e-015 -3.18055e-015 -0.8055 -1.585 0.7955 1.59028e-015 -6.36111e-015 -3.18055e-015 8.367 -8.2066 0.5982 8.18537 -75.4737 29.1823 2.1923 -43.463 -0.4932 172.335 26.6106 -161.785 0.7333 -45.8593 -2.6451 -2.18249 74.2418 17.6763 -8.367 -8.2066 0.5982 -7.99407 -75.4156 -28.9624 -2.1923 -43.463 -0.4931 -172.28 26.6824 161.771 -0.7333 -45.8593 -2.6451 2.94035 74.8121 -18.3588 
